<?xml version="1.0" encoding="UTF-8" standalone="no"?>
<!DOCTYPE svg PUBLIC "-//W3C//DTD SVG 1.1//EN" "http://www.w3.org/Graphics/SVG/1.1/DTD/svg11.dtd">
<svg width="100%" height="100%" viewBox="0 0 1030 427" version="1.1" xmlns="http://www.w3.org/2000/svg" xmlns:xlink="http://www.w3.org/1999/xlink" xml:space="preserve" style="fill-rule:evenodd;clip-rule:evenodd;stroke-linejoin:round;stroke-miterlimit:2;">
    <g transform="matrix(0.977556,0,0,0.907367,-684.443,-614.302)">
        <g transform="matrix(0.948967,0,0,1.66665,442.987,-401.31)">
            <rect x="271" y="647" width="1110" height="282" style="fill:white;"/>
        </g>
        <g transform="matrix(1,0,0,1,0,32.2393)">
            <g transform="matrix(1.25313,0,0,1.23512,-721.961,30.7558)">
                <g transform="matrix(50,0,0,50,1676.84,800.006)">
                    <path d="M0.036,-0.233L0.177,-0.247C0.185,-0.199 0.202,-0.165 0.228,-0.143C0.254,-0.12 0.289,-0.109 0.333,-0.109C0.38,-0.109 0.415,-0.119 0.438,-0.139C0.462,-0.159 0.474,-0.182 0.474,-0.208C0.474,-0.225 0.469,-0.239 0.459,-0.251C0.449,-0.263 0.431,-0.273 0.407,-0.282C0.39,-0.288 0.351,-0.299 0.291,-0.313C0.214,-0.333 0.159,-0.356 0.128,-0.384C0.084,-0.424 0.062,-0.472 0.062,-0.528C0.062,-0.565 0.072,-0.599 0.093,-0.631C0.114,-0.662 0.143,-0.687 0.182,-0.703C0.221,-0.72 0.268,-0.728 0.323,-0.728C0.413,-0.728 0.481,-0.708 0.526,-0.669C0.572,-0.63 0.595,-0.577 0.598,-0.511L0.453,-0.505C0.447,-0.542 0.434,-0.568 0.413,-0.584C0.393,-0.6 0.362,-0.608 0.322,-0.608C0.28,-0.608 0.247,-0.6 0.223,-0.583C0.208,-0.571 0.2,-0.557 0.2,-0.538C0.2,-0.521 0.207,-0.507 0.222,-0.495C0.24,-0.479 0.284,-0.463 0.354,-0.447C0.425,-0.43 0.477,-0.413 0.51,-0.395C0.544,-0.378 0.571,-0.353 0.59,-0.323C0.609,-0.292 0.618,-0.254 0.618,-0.208C0.618,-0.167 0.607,-0.129 0.584,-0.093C0.561,-0.057 0.529,-0.031 0.487,-0.013C0.446,0.004 0.394,0.013 0.332,0.013C0.241,0.013 0.172,-0.008 0.123,-0.05C0.075,-0.092 0.046,-0.153 0.036,-0.233Z" style="fill:rgb(204,51,51);fill-rule:nonzero;"/>
                </g>
                <g transform="matrix(50,0,0,50,1710.19,800.006)">
                    <path d="M0.208,-0.716L0.208,-0.453C0.253,-0.504 0.306,-0.53 0.367,-0.53C0.399,-0.53 0.427,-0.524 0.453,-0.513C0.478,-0.501 0.497,-0.486 0.51,-0.468C0.523,-0.45 0.532,-0.429 0.536,-0.407C0.541,-0.385 0.543,-0.351 0.543,-0.304L0.543,0L0.406,0L0.406,-0.274C0.406,-0.328 0.404,-0.363 0.398,-0.377C0.393,-0.392 0.384,-0.404 0.371,-0.412C0.358,-0.421 0.341,-0.425 0.321,-0.425C0.299,-0.425 0.278,-0.42 0.26,-0.409C0.242,-0.398 0.229,-0.381 0.221,-0.359C0.213,-0.336 0.208,-0.303 0.208,-0.26L0.208,0L0.071,0L0.071,-0.716L0.208,-0.716Z" style="fill:rgb(204,51,51);fill-rule:nonzero;"/>
                </g>
                <g transform="matrix(50,0,0,50,1740.73,800.006)">
                    <path d="M0.04,-0.267C0.04,-0.312 0.051,-0.356 0.074,-0.399C0.096,-0.442 0.128,-0.474 0.169,-0.497C0.21,-0.519 0.256,-0.53 0.307,-0.53C0.386,-0.53 0.45,-0.505 0.5,-0.454C0.55,-0.403 0.575,-0.339 0.575,-0.261C0.575,-0.182 0.55,-0.117 0.499,-0.066C0.449,-0.014 0.385,0.012 0.308,0.012C0.261,0.012 0.215,0.001 0.172,-0.021C0.129,-0.042 0.096,-0.073 0.074,-0.115C0.051,-0.156 0.04,-0.207 0.04,-0.267ZM0.181,-0.259C0.181,-0.208 0.193,-0.168 0.217,-0.141C0.242,-0.114 0.272,-0.1 0.308,-0.1C0.343,-0.1 0.373,-0.114 0.398,-0.141C0.422,-0.168 0.434,-0.208 0.434,-0.26C0.434,-0.311 0.422,-0.35 0.398,-0.377C0.373,-0.405 0.343,-0.418 0.308,-0.418C0.272,-0.418 0.242,-0.405 0.217,-0.377C0.193,-0.35 0.181,-0.311 0.181,-0.259Z" style="fill:rgb(204,51,51);fill-rule:nonzero;"/>
                </g>
                <g transform="matrix(50,0,0,50,1771.27,800.006)">
                    <path d="M0.068,-0.519L0.196,-0.519L0.196,-0.442C0.212,-0.468 0.235,-0.49 0.263,-0.506C0.292,-0.522 0.323,-0.53 0.357,-0.53C0.418,-0.53 0.469,-0.507 0.511,-0.459C0.553,-0.412 0.574,-0.347 0.574,-0.262C0.574,-0.176 0.553,-0.108 0.51,-0.06C0.468,-0.012 0.417,0.012 0.356,0.012C0.328,0.012 0.302,0.006 0.279,-0.005C0.255,-0.017 0.231,-0.036 0.205,-0.064L0.205,0.197L0.068,0.197L0.068,-0.519ZM0.204,-0.268C0.204,-0.21 0.215,-0.167 0.238,-0.139C0.261,-0.111 0.29,-0.097 0.323,-0.097C0.355,-0.097 0.381,-0.11 0.402,-0.135C0.424,-0.161 0.434,-0.203 0.434,-0.261C0.434,-0.316 0.423,-0.356 0.401,-0.382C0.38,-0.409 0.353,-0.422 0.32,-0.422C0.287,-0.422 0.259,-0.409 0.237,-0.383C0.215,-0.357 0.204,-0.319 0.204,-0.268Z" style="fill:rgb(204,51,51);fill-rule:nonzero;"/>
                </g>
            </g>
            <g transform="matrix(5.82371,0,0,5.82371,-3452.69,-3621)">
                <g transform="matrix(0.171712,0,0,0.171712,698.807,579.655)">
                    <path d="M970.638,1066.12C984.402,1052.3 1003.44,1043.75 1024.47,1043.75C1066.41,1043.75 1100.47,1077.8 1100.47,1119.75C1100.47,1161.69 1066.41,1195.75 1024.47,1195.75C1003.44,1195.75 984.402,1187.19 970.638,1173.38L970.638,1264.02L948.466,1264.02L948.466,1043.75L970.638,1043.75L970.638,1066.12ZM970.638,1125.77C973.637,1152.83 996.61,1173.91 1024.47,1173.91C1054.36,1173.91 1078.63,1149.64 1078.63,1119.75C1078.63,1089.86 1054.36,1065.59 1024.47,1065.59C996.61,1065.59 973.637,1086.66 970.638,1113.72L970.638,1125.77Z" style="fill:rgb(204,51,51);"/>
                </g>
                <g transform="matrix(0.171712,0,0,0.171712,700.952,578.941)">
                    <path d="M904.162,1112.02C902.78,1152.75 869.276,1185.39 828.207,1185.39C787.138,1185.39 753.634,1152.75 752.252,1112.02L752.277,977.924L774,978.024L774.109,1112.02C775.478,1140.69 799.194,1163.56 828.207,1163.56C857.22,1163.56 880.936,1140.69 882.305,1112.02L882.131,978.024L904.171,978.024L904.162,1112.02Z" style="fill:rgb(204,51,51);"/>
                </g>
                <g transform="matrix(50,0,0,50,802.093,785.023)">
                    <path d="M0.138,-0.267L0.359,-0.478L0.468,-0.478L0.225,-0.254L0.483,0L0.371,0L0.138,-0.236L0.138,0L0.062,0L0.062,-0.709L0.138,-0.709L0.138,-0.267Z" style="fill:rgb(204,51,51);fill-rule:nonzero;"/>
                </g>
                <g>
                    <g transform="matrix(0.171712,0,0,0.171712,597.573,657.233)">
                        <path d="M1143.09,667.479C1143.09,672.933 1142.14,677.976 1140.23,682.607C1138.33,687.238 1135.68,691.251 1132.28,694.647C1128.89,698.043 1124.85,700.693 1120.17,702.597C1115.48,704.501 1110.31,705.453 1104.65,705.453C1099.1,705.453 1093.98,704.501 1089.29,702.597C1084.61,700.693 1080.57,698.043 1077.18,694.647C1073.78,691.251 1071.13,687.238 1069.23,682.607C1067.32,677.976 1066.37,672.933 1066.37,667.479C1066.37,662.025 1067.32,656.982 1069.23,652.351C1071.13,647.72 1073.78,643.707 1077.18,640.311C1080.57,636.915 1084.61,634.265 1089.29,632.361C1093.98,630.457 1099.1,629.505 1104.65,629.505L1104.73,629.505L1104.73,638.767L1104.65,638.767C1100.43,638.767 1096.65,639.513 1093.31,641.005C1089.96,642.497 1087.13,644.53 1084.82,647.103C1082.5,649.675 1080.7,652.711 1079.41,656.21C1078.13,659.709 1077.49,663.465 1077.49,667.479C1077.49,671.492 1078.13,675.249 1079.41,678.747C1080.7,682.246 1082.5,685.282 1084.82,687.855C1087.13,690.428 1089.96,692.46 1093.31,693.952C1096.65,695.445 1100.43,696.191 1104.65,696.191C1108.87,696.191 1112.65,695.445 1116,693.952C1119.34,692.46 1122.2,690.428 1124.57,687.855C1126.93,685.282 1128.76,682.246 1130.05,678.747C1131.33,675.249 1131.98,671.492 1131.98,667.479L1143.09,667.479Z" style="fill:rgb(230,170,170);fill-rule:nonzero;"/>
                    </g>
                    <g transform="matrix(0.171712,0,0,0.171712,622.456,621.768)">
                        <path d="M959.814,798.016C1001.76,798.016 1035.81,832.07 1035.81,874.016C1035.81,915.961 1001.76,950.016 959.814,950.016C917.869,950.016 883.814,915.961 883.814,874.016C883.814,832.07 917.869,798.016 959.814,798.016ZM959.814,819.855C989.706,819.855 1013.98,844.124 1013.98,874.016C1013.98,903.908 989.706,928.176 959.814,928.176C929.922,928.176 905.654,903.908 905.654,874.016C905.654,844.124 929.922,819.855 959.814,819.855Z" style="fill:rgb(204,51,51);"/>
                    </g>
                </g>
                <g transform="matrix(0.171712,0,0,0.171712,592.525,621.768)">
                    <path d="M959.814,798.016C1001.76,798.016 1035.81,832.07 1035.81,874.016C1035.81,915.961 1001.76,950.016 959.814,950.016C917.869,950.016 883.814,915.961 883.814,874.016C883.814,832.07 917.869,798.016 959.814,798.016ZM959.814,819.855C989.706,819.855 1013.98,844.124 1013.98,874.016C1013.98,903.908 989.706,928.176 959.814,928.176C929.922,928.176 905.654,903.908 905.654,874.016C905.654,844.124 929.922,819.855 959.814,819.855Z" style="fill:rgb(204,51,51);"/>
                </g>
                <g transform="matrix(50,0,0,50,717.278,785.023)">
                    <path d="M0.178,-0.076L0.498,-0.076L0.498,0L0.096,0L0.096,-0.708L0.178,-0.708L0.178,-0.076Z" style="fill:rgb(204,51,51);fill-rule:nonzero;"/>
                </g>
            </g>
        </g>
    </g>
</svg>
